<svg width="20" height="20" viewBox="0 0 20 20" fill="none" xmlns="http://www.w3.org/2000/svg">
<path fill-rule="evenodd" clip-rule="evenodd" d="M13 6C13 7.65685 11.6569 9 10 9C8.34315 9 7 7.65685 7 6C7 4.34315 8.34315 3 10 3C11.6569 3 13 4.34315 13 6ZM15 6C15 8.76142 12.7614 11 10 11C7.23858 11 5 8.76142 5 6C5 3.23858 7.23858 1 10 1C12.7614 1 15 3.23858 15 6ZM10 15C8.00974 15 6.14277 15.6827 4.80081 16.838C4.00137 17.5262 3.43144 18.342 3.10308 19.2104C2.93365 19.6585 2.51901 20 2.02625 20H1.969C1.34111 20 0.854278 19.4583 1.03999 18.8774C1.4635 17.5527 2.28028 16.3319 3.42882 15.3431C5.17154 13.8429 7.53523 13 10 13C12.4648 13 14.8285 13.8429 16.5712 15.3431C17.7197 16.3319 18.5365 17.5527 18.96 18.8774C19.1457 19.4583 18.6589 20 18.031 20H17.9737C17.481 20 17.0663 19.6585 16.8969 19.2104C16.5686 18.342 15.9986 17.5262 15.1992 16.838C13.8572 15.6827 11.9903 15 10 15Z" fill="#497AD7"/>
</svg>
