<svg width="20" height="20" viewBox="0 0 20 20" fill="none" xmlns="http://www.w3.org/2000/svg">
<path d="M18.7293 18.6509C19.0993 18.2557 19.0887 17.6372 18.7054 17.255L15.2951 13.8538C16.2947 12.5585 16.9945 10.8645 16.9945 8.97135C16.9945 4.58711 13.3957 1 8.99725 1C4.59876 1 1 4.68675 1 9.07099C1 13.4552 4.59876 17.0423 8.99725 17.0423C10.7966 17.0423 12.496 16.4445 13.8956 15.3484L17.2645 18.7083C17.664 19.1067 18.3129 19.0956 18.6985 18.6837L18.7293 18.6509ZM8.99725 15.0495C5.69838 15.0495 2.99931 12.3592 2.99931 9.07099C2.99931 5.78281 5.69838 3.09248 8.99725 3.09248C12.2961 3.09248 14.9952 5.78281 14.9952 9.07099C14.9952 12.3592 12.2961 15.0495 8.99725 15.0495Z" fill="#497AD7"/>
</svg>
