<svg width="140" height="70" viewBox="0 0 140 70" fill="none" xmlns="http://www.w3.org/2000/svg">
<g clip-path="url(#clip0_1501_859)">
<path d="M140 0H0L60.3623 65.7C65.6377 71.5 74.3623 71.5 79.6377 65.7L140 0Z" fill="#67BCFA"/>
<path d="M37.2314 0.5L69.7967 38.4L102.26 0.7L37.2314 0.5Z" fill="#67BCFA"/>
<path d="M61.9856 14.7004H79.5363C78.2175 13.9004 75.0725 10.1004 73.4494 11.5004C73.3479 11.6004 68.4783 5.80041 65.3334 8.60041C62.5943 11.1004 61.2754 8.30041 58.232 10.2004C54.5798 12.6004 60.2609 13.9004 61.9856 14.7004ZM89.0725 11.2004L79.1305 11.3004C83.087 6.80041 84.8117 7.30041 89.0725 11.2004Z" fill="white"/>
<path d="M99.0142 3.6V1.2H101.145L99.0142 3.6ZM49.1012 13C49.2026 13.1 51.536 10.6 55.2896 8.1C58.7389 5.8 64.0142 3.2 69.8983 3.2C75.7824 3.2 81.1592 5.9 84.6084 8.2C88.3621 10.6 90.6954 13 90.7969 13.1L88.2606 16.1C83.6954 16.7 80.449 20 75.9853 19.3C73.7534 18.9 73.6519 17.7 73.0432 16.4C72.536 15.4 71.7244 15.6 70.7099 15.2C69.7968 14.8 69.1882 14.1 67.2606 14.5C65.6374 14.9 65.4345 17.4 63.3041 17.3C62.1882 17.2 62.0867 15.7 60.4635 13.7C56.3041 8.8 52.5105 9.41045 49.8728 13.9104L49.1012 13ZM40.5795 1.2V3.1L38.9563 1.2H40.5795ZM95.2606 1.2H98.507V4.2L95.2606 8V1.2ZM91.1012 12.6V1.2H94.6519V8.6L91.1012 12.6ZM90.594 2.2V12.1C89.478 11 88.2606 10 86.9418 9.1L90.594 2.2ZM86.4345 1.9V8.7C85.9273 8.4 85.5215 8 84.9128 7.7C84.2026 7.3 83.4925 6.8 82.6809 6.4L86.4345 1.9ZM81.9708 1.7V6C80.9563 5.5 79.8403 5 78.8258 4.5L81.9708 1.7ZM82.5795 1.2H86.3331L82.5795 5.8V1.2ZM86.9418 1.2H90.594L86.9418 8.3V1.2ZM78.0142 1.2H81.9708L78.42 4.3C78.3186 4.3 78.2171 4.2 78.1157 4.2L78.0142 1.2ZM77.507 1.6V4C76.4925 3.6 75.478 3.3 74.3621 3.1L77.507 1.6ZM73.2461 1.6V2.9C72.536 2.8 71.8258 2.7 71.0142 2.6L73.2461 1.6ZM66.3476 1.6L68.5795 2.6C67.7679 2.6 67.0577 2.7 66.3476 2.9V1.6ZM62.1882 1.6L65.3331 3.1C64.2171 3.3 63.2026 3.6 62.1882 4V1.6ZM65.8403 2.8L62.4925 1.2H65.8403V2.8ZM69.3911 2.4L66.5505 1.1H69.3911V2.4ZM70.1012 1.2H73.0432L70.1012 2.5V1.2ZM73.8548 1.2H77.1012L73.8548 2.8V1.2ZM61.2751 4.3L57.7244 1.2H61.6809V4.2L61.2751 4.3ZM57.6229 1.7L60.7679 4.4C59.6519 4.8 58.6374 5.3 57.6229 5.9V1.7ZM53.2606 1.9L56.9128 6.4C55.5939 7.1 54.3766 7.9 53.2606 8.8V1.9ZM48.9997 2.2L52.6519 9.2C51.3331 10.2 50.1157 11.2 48.9997 12.4V2.2ZM52.7534 8.2L49.1012 1.1H52.7534V8.2ZM57.1157 5.7L53.3621 1.1H57.1157V5.7ZM44.3331 7.5L41.0867 3.7V1.2H44.3331V7.5ZM44.9418 1.2H48.4925V12.4L44.9418 8.2V1.2ZM36.5215 0V14.6L69.9997 54.5L103.478 15V0H36.5215Z" fill="#491213"/>
<path d="M67.3624 45.9998L70.0001 41.7998L72.6378 45.9998L70.0001 50.1998L67.3624 45.9998Z" fill="#67BCFA"/>
<path d="M75.2755 30.5997C71.8263 28.5997 72.6379 27.0997 75.4784 25.6997C77.0002 24.9997 80.348 22.2997 81.6668 23.1997L75.2755 30.5997ZM72.9422 33.0997C70.9132 32.9997 68.5799 32.6997 66.5509 33.1997C67.7683 33.4997 70.8118 34.3997 67.9712 35.0997C68.9857 36.4997 70.6089 36.3997 71.6234 35.1997C71.2176 34.9997 70.9132 34.6997 70.6089 34.4997C71.7248 34.1997 72.7393 33.5997 72.9422 33.0997ZM74.1596 31.4997C73.2465 30.6997 72.2321 30.6997 71.4205 31.4997C70.2031 29.3997 65.9422 30.0997 63.9132 29.7997C65.0292 32.3997 73.6523 32.8997 74.1596 31.4997ZM67.261 29.2997C65.6379 28.7997 60.3625 28.8997 63.8118 27.4997C64.9277 27.0997 70.6089 27.5997 67.261 29.2997ZM69.29 26.2997C68.7828 25.1997 69.6958 23.8997 71.0147 24.8997C72.2321 25.6997 70.406 26.8997 69.29 26.2997ZM66.348 26.3997C64.0147 27.0997 60.9712 25.5997 64.7248 24.8997C67.0581 24.3997 69.4929 25.3997 66.348 26.3997C66.4494 26.3997 66.2466 26.3997 66.348 26.3997ZM63.7103 20.1997C63.2031 21.7997 62.1886 22.0997 62.29 20.1997C62.3915 17.8997 63.9132 18.4997 65.5364 17.5997C66.8552 16.8997 67.5654 14.1997 69.8987 15.7997C70.9132 16.4997 72.1306 15.8997 72.435 16.9997C72.435 16.8997 69.4929 23.6997 71.1161 23.6997C67.8697 23.6997 69.29 19.8997 70.5074 17.2997C69.29 17.8997 67.3625 21.5997 68.9857 22.2997C68.1741 23.3997 65.5364 24.8997 64.2176 23.7997C63.1016 22.7997 63.7103 21.4997 63.7103 20.1997ZM59.6523 22.9997C53.9712 22.9997 57.8263 14.3997 59.7538 14.8997C61.9857 15.5997 61.6813 23.0997 59.6523 22.9997ZM53.3625 14.7997C50.7248 14.6997 51.8408 12.1997 53.6668 11.6997C55.3915 11.1997 58.9422 12.7997 60.1596 13.8997C58.3335 14.4997 56.0002 14.3997 53.9712 14.4997C53.7683 12.4997 53.261 13.1997 53.3625 14.7997Z" fill="#DC6243"/>
<path d="M72.8403 25.8006C69.8982 22.8006 77.2026 23.1006 78.42 22.0006C79.2316 22.3006 85.5214 16.6006 87.0432 17.0006C85.9272 18.3006 83.5939 22.3006 81.9707 22.3006C80.6519 22.3006 79.333 22.1006 78.3185 23.0006C76.7968 24.4006 74.362 25.1006 72.8403 25.8006Z" fill="#F49774"/>
<path d="M73.7534 22.2003C72.1303 23.1003 70.6085 19.7003 73.4491 20.0003C75.2752 20.2003 77.2027 19.8003 78.9274 20.1003C77.6085 21.6003 75.7824 22.4003 73.7534 22.2003Z" fill="#F4B1A4"/>
<path d="M51.8406 20.8998C52.145 21.2998 52.4493 21.6998 52.3479 22.2998C52.3479 22.6998 51.7392 23.2998 52.145 23.4998L53.6667 21.6998C53.2609 21.5998 50.116 17.8998 50.116 17.4998L47.9856 18.5998C48.087 18.9998 48.7971 18.5998 49.2029 18.5998C49.7102 18.5998 50.116 18.9998 50.5218 19.2998C49.4058 20.1998 46.6667 22.5998 46.3624 22.5998C46.2609 22.5998 45.6522 22.1998 45.6522 22.5998C45.6522 22.7998 46.2609 23.2998 46.3624 23.3998L47.7827 25.0998C48.1885 24.8998 47.6812 24.5998 47.8841 24.2998C47.9856 24.0998 51.1305 21.5998 51.8406 20.8998ZM48.3914 16.3998C48.6957 16.2998 48.7971 16.6998 49 16.3998L47.3769 14.4998C47.174 14.1998 46.8696 13.8998 46.8696 14.4998C46.9711 14.8998 42.8116 18.1998 42.6087 18.2998C42.3044 18.3998 42.1015 17.9998 41.8986 18.3998C42.4058 18.9998 42.8116 19.4998 43.3189 20.0998C43.5218 20.2998 43.6232 20.4998 43.8261 20.6998C44.029 20.8998 43.9276 20.2998 43.9276 20.2998C43.8261 19.9998 44.2319 19.6998 44.5363 19.4998C45.5508 18.4998 48.087 16.3998 48.3914 16.3998ZM42.6087 15.7998C41.4928 16.0998 40.174 15.6998 39.8696 14.4998C39.4638 13.2998 40.2754 12.0998 41.1884 11.3998C42.1015 10.6998 43.5218 10.7998 44.029 11.8998C44.2319 12.3998 44.1305 12.9998 43.9276 13.4998C43.8261 13.7998 43.5218 14.0998 43.9276 14.2998C44.5363 13.5998 45.0435 12.8998 45.6522 12.1998C44.9421 11.7998 44.6377 11.0998 44.1305 10.4998C43.5218 9.79984 42.8116 9.09984 41.7971 8.99984C39.8696 8.69984 38.145 10.6998 37.9421 12.3998C37.8406 13.2998 38.145 14.1998 38.7537 14.9998C39.2609 15.5998 39.9711 16.0998 40.3769 16.7998C40.5798 16.8998 42.2029 16.0998 42.5073 15.9998C42.7102 15.9998 42.6087 15.8998 42.6087 15.7998C42.6087 15.7998 42.1015 15.9998 42.6087 15.7998ZM68.4783 39.3998C67.7682 38.8998 65.8406 36.3998 65.4348 35.8998L65.2319 35.5998L65.029 35.6998C64.9276 35.7998 65.1305 36.0998 65.029 36.2998C64.5218 37.0998 61.2754 39.4998 61.0725 39.6998C60.6667 39.8998 60.2609 39.5998 60.058 39.8998C60.5653 40.4998 61.8841 42.1998 62.087 42.1998C62.3913 42.1998 62.1884 41.6998 62.1884 41.5998C62.2899 41.3998 63.9131 39.9998 64.5218 39.4998C64.7247 39.2998 64.9276 39.7998 65.1305 39.9998C65.3334 40.2998 65.4348 40.6998 65.3334 40.9998C65.2319 41.1998 64.8261 41.5998 65.1305 41.7998C65.5363 41.2998 66.6522 39.9998 66.8551 39.7998C67.058 39.5998 66.4493 39.7998 66.5508 39.6998C66.3479 39.7998 66.0435 39.8998 65.8406 39.6998C65.7392 39.6998 65.1305 38.9998 65.2319 38.8998C65.5363 38.6998 65.8406 38.2998 66.2464 38.1998C66.8551 38.0998 67.2609 39.1998 67.3624 39.5998C67.4638 39.9998 67.4638 40.3998 67.2609 40.6998C67.1595 40.9998 66.9566 41.1998 67.2609 41.2998L68.6812 39.3998C68.6812 39.4998 68.5798 39.4998 68.4783 39.3998C68.5798 39.4998 68.3769 39.3998 68.4783 39.3998ZM59.145 30.4998C58.4348 30.4998 57.7247 30.7998 57.116 31.2998C55.6957 32.4998 55.4928 34.5998 56.6087 36.0998C57.9276 37.7998 60.058 37.9998 61.7827 36.7998C63.2029 35.5998 63.4058 33.4998 62.2899 31.9998C61.4783 30.9998 60.2609 30.4998 59.145 30.4998ZM60.3624 31.8998C61.2754 31.7998 61.8841 32.6998 61.4783 33.6998C61.0725 34.6998 60.058 35.6998 59.0435 36.0998C57.8261 36.5998 57.0145 35.5998 57.5218 34.3998C57.9276 33.3998 58.9421 32.3998 59.9566 31.9998C60.058 31.9998 60.1595 31.8998 60.3624 31.8998ZM57.5218 27.2998C57.8261 27.2998 58.1305 27.6998 58.3334 27.2998L56.9131 25.5998C56.5073 25.7998 56.9131 25.9998 56.8116 26.1998C56.6087 26.4998 55.087 26.6998 54.6812 26.7998C54.7827 26.3998 55.2899 25.0998 55.4928 24.9998C55.8986 24.6998 56.1015 25.2998 56.3044 24.8998L54.4783 22.7998C54.2754 22.5998 54.0725 22.0998 53.8696 22.3998C53.8696 22.3998 53.8696 23.3998 53.7682 23.4998C53.6667 23.6998 53.1595 25.8998 52.5508 26.3998C52.2464 26.6998 51.029 27.6998 50.7247 27.7998C50.4203 27.8998 50.2174 27.3998 49.9131 27.7998L51.5363 29.6998C51.6377 29.7998 51.9421 30.2998 52.0435 30.2998C52.3479 30.3998 52.0435 29.6998 52.145 29.5998C52.2464 29.2998 53.7682 27.7998 54.4783 27.6998C55.3913 27.4998 56.5073 27.1998 57.5218 27.2998C57.7247 27.2998 57.3189 27.2998 57.5218 27.2998ZM82.0725 33.9998C82.174 34.3998 82.2754 34.8998 82.174 35.2998C82.0725 35.8998 81.5653 37.1998 80.7537 36.7998C79.9421 36.3998 79.3334 35.6998 78.6232 35.0998C79.1305 34.4998 79.6377 33.9998 80.5508 34.2998C80.7537 34.3998 80.9566 34.2998 80.7537 34.0998C80.4493 33.8998 78.7247 32.7998 78.6232 32.8998C78.4203 33.0998 78.9276 33.4998 78.7247 33.8998C78.6232 34.1998 78.3189 34.3998 78.116 34.6998C77.6087 34.2998 76.8986 33.8998 77.4058 33.1998C77.8116 32.7998 78.2174 32.3998 78.8261 32.2998C79.2319 32.1998 80.0435 32.5998 80.145 32.1998C79.4348 31.8998 78.7247 31.4998 78.0145 31.1998C78.116 31.6998 75.7827 34.0998 75.2754 34.6998C75.174 34.7998 74.8696 35.0998 74.8696 35.1998C74.8696 35.4998 75.2754 35.2998 75.2754 35.2998C75.5798 35.1998 79.7392 38.5998 79.8406 38.8998C79.9421 39.0998 79.7392 39.2998 79.8406 39.3998C79.8406 39.3998 79.9421 39.4998 80.0435 39.4998C80.3479 39.1998 82.9856 35.5998 83.5942 35.4998C83.087 34.6998 82.5798 33.8998 82.0725 33.0998C81.6667 33.2998 81.9711 33.7998 82.0725 33.9998ZM78.0145 38.3998C76.6957 37.4998 74.3624 39.1998 73.9566 39.3998C73.2464 39.6998 72.7392 38.9998 73.145 38.3998C73.4493 37.8998 74.058 37.5998 74.6667 37.5998C74.8696 37.5998 75.5798 37.6998 75.5798 37.5998C75.6812 37.4998 75.6812 37.4998 75.5798 37.3998C74.9711 36.9998 74.4638 36.5998 73.8551 36.2998C73.7537 36.9998 72.9421 37.3998 72.5363 37.8998C72.029 38.4998 71.5218 39.1998 71.5218 39.8998C71.5218 40.5998 71.9276 41.2998 72.6377 41.5998C73.3479 41.9998 74.1595 41.6998 74.8696 41.2998C75.2754 40.9998 75.6812 40.6998 76.087 40.4998C76.6957 40.1998 77.6087 40.4998 77.4058 41.2998C77.2029 41.9998 76.4928 42.5998 75.7827 42.7998C75.3769 42.8998 74.9711 42.8998 74.5653 42.6998C74.2609 42.5998 73.9566 42.1998 73.7537 42.5998L76.087 44.1998C76.1885 43.6998 76.3913 43.4998 76.7971 43.1998C77.3044 42.7998 77.7102 42.2998 78.116 41.7998C78.9276 40.8998 79.2319 39.2998 78.0145 38.3998ZM95.8696 10.2998C95.8696 10.3998 95.8696 10.3998 95.8696 10.2998L94.9566 11.2998L94.145 12.2998C93.9421 12.4998 93.8406 12.5998 94.145 12.7998C94.6522 12.4998 97.6957 17.5998 97.4928 18.2998C96.9856 18.4998 92.9276 14.9998 92.8261 14.7998C92.8261 14.6998 93.029 14.0998 92.7247 14.1998C92.6232 14.1998 92.2174 14.7998 92.116 14.8998L91.5073 15.5998C91.7102 15.8998 91.8116 15.5998 92.116 15.5998C92.3189 15.6998 93.3334 16.4998 93.6377 16.6998C93.1305 16.6998 91.9131 16.7998 91.7102 16.7998C91.1015 16.8998 91.4058 16.3998 91 16.1998L89.4783 17.9998L88.5653 18.9998C88.5653 18.9998 88.5653 18.9998 88.5653 19.0998C88.7682 19.2998 88.6667 19.1998 88.9711 19.0998C89.2754 18.9998 93.3334 22.2998 93.4348 22.4998C93.6377 22.7998 93.3334 23.0998 93.7392 23.2998L94.9566 21.8998C95.058 21.7998 95.058 21.7998 94.9566 21.7998C94.6522 21.5998 94.6522 21.8998 94.2464 21.8998C93.9421 21.7998 91.3044 19.6998 90.3913 18.8998L95.7682 18.6998C95.9711 18.6998 96.4783 19.2998 96.4783 19.4998C96.3769 19.6998 96.174 19.8998 96.4783 19.9998C96.7827 19.5998 97.087 19.2998 97.3913 18.8998L97.4928 18.6998C97.5942 18.6998 97.5942 18.5998 97.5942 18.4998L97.6957 18.3998C98 18.0998 98.9131 17.0998 98.8116 16.9998C98.5073 16.6998 98.4058 17.2998 98 16.9998C97.7971 16.7998 97.1884 15.7998 97.087 15.5998C96.8841 15.2998 97.4928 14.9998 97.6957 14.8998C98.2029 14.5998 99.8261 14.0998 100.029 15.0998C100.029 15.2998 99.8261 15.4998 99.9276 15.5998C99.9276 15.5998 100.029 15.7998 100.13 15.6998L102.261 13.0998C102.159 12.9998 102.159 12.9998 102.058 12.8998C101.551 13.3998 96.4783 11.3998 96.174 11.0998C96.0725 10.8998 96.0725 10.2998 95.8696 10.2998ZM95.6667 12.8998C96.4783 13.1998 97.1884 13.4998 98 13.8998C97.7971 13.9998 97.5942 14.0998 97.3913 14.1998C97.1885 14.2998 96.9856 14.4998 96.7827 14.6998L95.6667 12.8998ZM88.9711 20.5998C87.8551 20.4998 86.7392 20.9998 85.9276 21.8998C84.7102 23.3998 84.8116 25.5998 86.3334 26.7998C87.8551 27.9998 90.087 27.6998 91.3044 26.2998C92.5218 24.7998 92.4203 22.5998 90.8986 21.3998C90.3913 20.9998 89.6812 20.6998 88.9711 20.5998ZM87.5508 22.1998C88.1595 22.1998 88.8696 22.5998 89.2754 22.8998C90.087 23.3998 91.5073 24.5998 90.7971 25.5998C90.7971 25.4998 90.8986 25.4998 90.6957 25.6998C89.8841 26.4998 88.4638 25.7998 87.7537 25.1998C87.0435 24.6998 85.7247 23.4998 86.5363 22.4998C86.8406 22.2998 87.145 22.1998 87.5508 22.1998ZM84.4058 26.4998C83.1884 26.3998 81.9711 26.9998 81.058 28.0998C80.4493 28.8998 79.7392 29.5998 79.1305 30.3998C79.3334 30.6998 79.6377 30.2998 79.9421 30.4998C80.2464 30.6998 84.1015 33.7998 84.1015 33.9998C84.2029 34.2998 83.8986 34.3998 84.2029 34.5998C84.3044 34.6998 87.145 31.1998 87.4493 30.5998C87.8551 29.4998 87.5508 28.1998 86.6377 27.3998C86.7392 27.4998 86.8406 27.4998 86.6377 27.3998C85.8261 26.7998 85.116 26.4998 84.4058 26.4998ZM83.2899 28.0998C83.3913 28.0998 83.4928 28.0998 83.5942 28.0998C85.0145 28.4998 87.0435 30.1998 85.7247 31.6998C85.5218 31.8998 85.7247 31.6998 85.3189 32.0998C85.116 32.2998 81.058 29.0998 81.2609 28.8998C81.6667 28.3998 82.5798 27.9998 83.2899 28.0998Z" fill="white"/>
</g>
<defs>
<clipPath id="clip0_1501_859">
<rect width="140" height="70" fill="white"/>
</clipPath>
</defs>
</svg>
