<svg width="64" height="12" viewBox="0 0 64 12" xmlns="http://www.w3.org/2000/svg">
  <path
    d="M6 0L7.76336 3.57295L11.7063 4.1459L8.85317 6.92705L9.52671 10.8541L6 9L2.47329 10.8541L3.14683 6.92705L0.293661 4.1459L4.23664 3.57295L6 0Z" />
  <path
    d="M19 0L20.7634 3.57295L24.7063 4.1459L21.8532 6.92705L22.5267 10.8541L19 9L15.4733 10.8541L16.1468 6.92705L13.2937 4.1459L17.2366 3.57295L19 0Z" />
  <path
    d="M32 0L33.7634 3.57295L37.7063 4.1459L34.8532 6.92705L35.5267 10.8541L32 9L28.4733 10.8541L29.1468 6.92705L26.2937 4.1459L30.2366 3.57295L32 0Z" />
  <path
    d="M45 0L46.7634 3.57295L50.7063 4.1459L47.8532 6.92705L48.5267 10.8541L45 9L41.4733 10.8541L42.1468 6.92705L39.2937 4.1459L43.2366 3.57295L45 0Z" />
  <path
    d="M58 0L59.7634 3.57295L63.7063 4.1459L60.8532 6.92705L61.5267 10.8541L58 9L54.4733 10.8541L55.1468 6.92705L52.2937 4.1459L56.2366 3.57295L58 0Z" />
</svg>
